<svg width="1074" height="273" viewBox="0 0 1074 273" fill="none" xmlns="http://www.w3.org/2000/svg">
<path fill-rule="evenodd" clip-rule="evenodd" d="M0.640332 447.647L155.727 444.637L199.25 403.652C246.91 440.559 238.075 257.52 314.642 256.034C422.355 253.943 562.49 270.267 672 232.5C781.51 194.733 810.5 175.5 935.336 107.45C1032.22 54.6359 1113.76 -13.6657 1167 3L1294.45 24.8582L1275.83 394.883L1222.16 392.182C1168.49 389.48 1061.15 384.078 953.816 378.676C846.479 373.273 739.141 367.871 631.803 362.469C524.466 357.066 417.128 351.664 309.791 346.262C202.453 340.86 95.1155 335.457 41.4467 332.756L46.619 446.754L0.640332 447.647Z" fill="#6688AE"/>
</svg>
