<svg width="588" height="800" viewBox="0 0 588 800" fill="none" xmlns="http://www.w3.org/2000/svg">
<path fill-rule="evenodd" clip-rule="evenodd" d="M0.617366 798.107L83.63 785.189L161.647 767.765C211.165 749.813 277.179 735.378 351.74 672.951C420.872 615.069 455.09 511.611 463.9 414.185C472.71 316.758 460.465 267.068 457.749 150.757C455.542 56.2338 477.408 -78.2647 511.687 -109.573L521.973 -149.824L831.863 33.3921L809.381 71.4178C786.899 109.444 741.935 185.495 696.971 261.546C652.007 337.597 651.964 458.449 607 534.5C562.036 610.551 524.464 709.137 479.5 785.189C434.536 861.24 337.26 869.956 314.778 907.982L169.075 841.772L0.617366 798.107Z" fill="#546E8A"/>
</svg>
