<svg width="37" height="57" viewBox="0 0 37 57" fill="none" xmlns="http://www.w3.org/2000/svg">
<g clip-path="url(#clip0_599_144)">
<path d="M34.5953 28.0703C34.5956 28.7711 34.4626 29.465 34.204 30.1126C33.9454 30.7601 33.5662 31.3486 33.088 31.8443C32.6098 32.3401 32.042 32.7334 31.4171 33.0019C30.7921 33.2704 30.1222 33.4087 29.4457 33.4091H7.4965C6.81953 33.4094 6.14912 33.2715 5.52361 33.0033C4.89811 32.7352 4.32976 32.3419 3.85106 31.8461C3.37237 31.3503 2.99271 30.7616 2.73378 30.1137C2.47486 29.4659 2.34176 28.7715 2.34207 28.0703V5.33626C2.34207 4.63549 2.47533 3.94158 2.73425 3.29416C2.99316 2.64673 3.37265 2.05847 3.85106 1.56295C4.81726 0.562211 6.12769 0 7.49409 0H29.4432C30.8092 0.000662374 32.119 0.563166 33.0847 1.56384C34.0504 2.56451 34.5929 3.92143 34.5929 5.33626V28.0703" fill="#6688AE"/>
<path d="M36.245 14.8646L20.9168 8.88379L0.692245 21.2651L15.854 36.1396L36.245 14.8646Z" fill="white"/>
<path d="M36.245 14.8646L20.9168 8.88379L0.692245 21.2651L15.854 36.1396L36.245 14.8646Z" stroke="black"/>
<path d="M36.245 11.4495L20.9168 5.47119L0.692245 17.8525L15.854 32.7246L36.245 11.4495Z" fill="white"/>
<path d="M36.245 11.4495L20.9168 5.47119L0.692245 17.8525L15.854 32.7246L36.245 11.4495Z" stroke="black"/>
<path d="M36.245 8.03439L20.9168 2.05359L0.692245 14.4374L15.854 29.3095L36.245 8.03439Z" fill="white"/>
<path d="M36.245 8.03439L20.9168 2.05359L0.692245 14.4374L15.854 29.3095L36.245 8.03439Z" stroke="black"/>
<path d="M20.9795 4.22441L14.6095 7.92681L20.9795 3.5249L27.3593 5.88075L20.9795 4.22441Z" fill="black"/>
<path d="M5.14715 47.2343C4.90661 47.4814 4.62007 47.6753 4.30494 47.8041C3.98981 47.9329 3.65268 47.9941 3.31403 47.9838C2.97684 47.994 2.64117 47.9328 2.32761 47.804C2.01406 47.6751 1.72922 47.4812 1.49057 47.2343C0.971987 46.6697 0.766968 45.9852 0.766968 44.736C0.766968 43.4869 0.971987 42.8124 1.49057 42.2378C1.72922 41.9908 2.01406 41.797 2.32761 41.6681C2.64117 41.5392 2.97684 41.478 3.31403 41.4883C3.65268 41.478 3.98981 41.5391 4.30494 41.668C4.62007 41.7968 4.90661 41.9907 5.14715 42.2378C5.65367 42.7874 5.85869 43.4869 5.85869 44.7011C5.85869 45.9752 5.66573 46.6622 5.14715 47.2268V47.2343ZM4.25471 42.6375C4.13597 42.5025 3.9904 42.3957 3.82801 42.3246C3.66562 42.2534 3.49027 42.2195 3.31403 42.2253C3.13657 42.2188 2.95997 42.2536 2.79719 42.3271C2.63441 42.4006 2.48959 42.5109 2.37336 42.65C2.07186 43.0372 1.99708 44.024 1.99708 44.776C1.99708 45.6129 2.1201 46.5248 2.39748 46.8396C2.51177 46.9728 2.65341 47.0779 2.81201 47.147C2.97061 47.2162 3.14214 47.2477 3.31403 47.2393C3.49534 47.2483 3.67626 47.2147 3.84332 47.1412C4.01037 47.0676 4.15924 46.956 4.27883 46.8146C4.56827 46.4523 4.65269 45.488 4.65269 44.751C4.64063 43.9616 4.57792 42.9997 4.25471 42.6375Z" fill="#6688AE"/>
<path d="M10.0942 47.9013L8.38166 44.9759L7.47716 46.0376V47.9013H6.24463V39.0026H7.47716V44.4912L9.85298 41.5633H11.3508L9.22586 44.054L11.6161 47.9013H10.0942Z" fill="#6688AE"/>
<path d="M16.0807 47.9838C15.7527 47.9927 15.4269 47.9243 15.128 47.784C14.855 47.6453 14.619 47.4394 14.4406 47.1844V50.657H13.5699V41.7507H14.4406V42.4877C14.6185 42.2377 14.8496 42.0334 15.1159 41.8906C15.4175 41.7449 15.7482 41.6755 16.0807 41.6883C17.6148 41.6883 18.3022 42.6876 18.3022 44.8535C18.3022 46.9895 17.6003 47.9888 16.0928 47.9888L16.0807 47.9838ZM15.9143 42.4877C14.8747 42.4877 14.4309 43.2022 14.4309 44.8385C14.4309 46.4749 14.8747 47.1894 15.9264 47.1894C16.978 47.1894 17.4098 46.4874 17.4098 44.8535C17.4194 43.1647 16.9852 42.4877 15.9143 42.4877Z" fill="black"/>
<path d="M22.0432 42.9273C21.921 42.781 21.7682 42.6654 21.5965 42.5892C21.4247 42.5131 21.2385 42.4783 21.0519 42.4876C20.1715 42.4876 19.6047 43.1522 19.6047 44.1365V47.9138H18.7364V41.7507H19.6047V42.5001C19.8006 42.2274 20.0586 42.0091 20.3557 41.8648C20.6529 41.7206 20.9799 41.6547 21.3076 41.6732C21.5797 41.67 21.8499 41.7209 22.1035 41.8231C22.3293 41.916 22.5314 42.0613 22.6945 42.2478L22.0553 42.9248" fill="black"/>
<path d="M22.5112 45.0635C22.5012 45.4436 22.5627 45.822 22.6921 46.1777C22.9695 46.8623 23.5001 47.177 24.3081 47.177C24.5689 47.1757 24.8272 47.1249 25.0703 47.0271C25.3555 46.9031 25.6108 46.7155 25.818 46.4775L26.409 47.0147C26.1353 47.3408 25.7928 47.5972 25.408 47.7641C25.0421 47.911 24.6522 47.9831 24.2599 47.9765C22.5474 47.9765 21.6429 46.8773 21.6429 44.7887C21.6429 42.8526 22.5715 41.6759 24.079 41.6759C25.5865 41.6759 26.5272 42.8151 26.5272 44.6513V45.0635H22.5112ZM25.5406 43.5646C25.4539 43.255 25.2776 42.9804 25.0356 42.7779C24.7936 42.5753 24.4974 42.4544 24.187 42.4315C23.8766 42.4086 23.5668 42.4849 23.2995 42.65C23.0322 42.815 22.8202 43.061 22.6921 43.3547C22.5788 43.6141 22.5173 43.8945 22.5112 44.1791H25.6468C25.6381 43.9736 25.6024 43.7702 25.5406 43.5746V43.5646Z" fill="black"/>
<path d="M28.9077 47.9838C28.4136 47.9922 27.9225 47.9032 27.4605 47.7215C27.1183 47.5778 26.8069 47.3655 26.544 47.0969L27.1229 46.4974C27.3156 46.7044 27.5459 46.87 27.8006 46.9845C28.175 47.1416 28.5763 47.2181 28.9801 47.2094C29.9955 47.2094 30.5503 46.8221 30.5503 46.1101C30.5503 45.5705 30.2247 45.2832 29.559 45.2207L28.5821 45.1333C27.4123 45.0359 26.8069 44.4838 26.8069 43.4945C26.8069 42.3827 27.6656 41.6832 29.0428 41.6832C29.4899 41.6854 29.9338 41.7621 30.3573 41.9106C30.6385 42.0057 30.9002 42.1539 31.1292 42.3478L30.5624 42.9348C30.3805 42.7814 30.1716 42.666 29.9473 42.5951C29.6356 42.4918 29.3098 42.4412 28.9825 42.4452C28.1262 42.4452 27.6438 42.8099 27.6438 43.472C27.6438 44.0216 27.9695 44.2964 28.6834 44.3589L29.6482 44.4463C30.8301 44.5612 31.3969 45.0958 31.3969 46.0951C31.3969 47.2818 30.4804 47.9838 28.8981 47.9838" fill="black"/>
<path d="M33.6714 47.9838C33.1774 47.9922 32.6862 47.9032 32.2242 47.7215C31.882 47.5778 31.5706 47.3655 31.3077 47.0969L31.8866 46.4974C32.0789 46.7038 32.3083 46.8693 32.5619 46.9845C32.9372 47.1414 33.3392 47.2179 33.7438 47.2094C34.7568 47.2094 35.314 46.8221 35.314 46.1101C35.314 45.5705 34.9884 45.2832 34.3251 45.2207L33.3458 45.1333C32.176 45.0359 31.573 44.4838 31.573 43.4945C31.573 42.3827 32.4293 41.6832 33.8041 41.6832C34.252 41.6851 34.6967 41.7619 35.1211 41.9106C35.402 42.0061 35.6637 42.1543 35.8929 42.3478L35.3261 42.9348C35.1495 42.7812 34.9466 42.6634 34.7279 42.5876C34.42 42.4855 34.0984 42.4349 33.7752 42.4377C32.9165 42.4377 32.4341 42.8024 32.4341 43.4645C32.4341 44.0141 32.7597 44.2889 33.4712 44.3514L34.424 44.4388C35.6083 44.5537 36.1751 45.0883 36.1751 46.0876C36.1751 47.2743 35.2585 47.9763 33.6763 47.9763" fill="black"/>
<path d="M4.69374 53.2127H3.89054V55.4611H3.24895V53.2127H2.44576V52.6031H4.69374V53.2127Z" fill="black"/>
<path d="M5.22917 52.603H5.87076V54.2294L7.75212 52.3557V55.461H7.11053V53.8022L5.22917 55.6784V52.603Z" fill="black"/>
<path d="M8.63979 52.6031H11.0325V55.4511H10.3909V53.2027H9.28138V55.4511H8.63979V52.6031Z" fill="black"/>
<path d="M12.1975 52.9503C12.4839 52.6786 12.8582 52.5278 13.2467 52.5278C13.6351 52.5278 14.0095 52.6786 14.2959 52.9503C14.5653 53.2403 14.7158 53.6271 14.7158 54.0296C14.7158 54.432 14.5653 54.8188 14.2959 55.1088C14.0116 55.3849 13.6364 55.5386 13.2467 55.5386C12.8569 55.5386 12.4818 55.3849 12.1975 55.1088C11.9269 54.8194 11.7756 54.4324 11.7756 54.0296C11.7756 53.6267 11.9269 53.2397 12.1975 52.9503ZM12.6509 54.6991C12.7273 54.7824 12.8199 54.8477 12.9227 54.8908C13.0254 54.9339 13.1359 54.9537 13.2467 54.9489C13.3571 54.9539 13.4673 54.9341 13.5696 54.891C13.672 54.8479 13.7643 54.7824 13.84 54.6991C13.9953 54.5182 14.0758 54.2814 14.0643 54.0396C14.0728 53.9143 14.0557 53.7886 14.0141 53.6707C13.9725 53.5528 13.9075 53.4452 13.8231 53.355C13.6642 53.2071 13.458 53.1252 13.2443 53.1252C13.0305 53.1252 12.8243 53.2071 12.6654 53.355C12.5811 53.4452 12.516 53.5528 12.4744 53.6707C12.4329 53.7886 12.4158 53.9143 12.4242 54.0396C12.415 54.2807 12.4963 54.5161 12.6509 54.6966V54.6991Z" fill="black"/>
<path d="M15.4609 55.4511V52.6031H17.1493V53.2127H16.1025V55.4611L15.4609 55.4511Z" fill="black"/>
<path d="M18.3263 55.1189V57.0001H17.6823V52.6032H18.3263V52.913C18.4245 52.7882 18.5492 52.6886 18.6905 52.6219C18.8319 52.5552 18.9863 52.5231 19.1416 52.5282C19.3187 52.5247 19.4947 52.5593 19.6582 52.6299C19.8218 52.7004 19.9695 52.8053 20.0919 52.938C20.2236 53.08 20.3261 53.2482 20.3933 53.4324C20.4605 53.6166 20.4909 53.813 20.4827 54.0097C20.4912 54.213 20.4596 54.416 20.39 54.6062C20.3203 54.7965 20.214 54.9701 20.0774 55.1164C19.9588 55.2489 19.8152 55.3548 19.6555 55.4274C19.4957 55.5 19.3233 55.5379 19.1488 55.5386C18.9897 55.5396 18.8325 55.5022 18.6897 55.4293C18.547 55.3565 18.4226 55.2502 18.3263 55.1189ZM19.0644 53.1203C18.9605 53.1194 18.8577 53.1411 18.7625 53.1842C18.6673 53.2272 18.582 53.2906 18.5121 53.3701C18.3523 53.5575 18.2708 53.8027 18.2853 54.0522C18.2787 54.1726 18.2954 54.2932 18.3343 54.4069C18.3732 54.5205 18.4337 54.625 18.5121 54.7142C18.5823 54.7934 18.6676 54.8565 18.7628 54.8995C18.8579 54.9426 18.9606 54.9645 19.0644 54.964C19.17 54.9672 19.2748 54.9449 19.3706 54.8989C19.4665 54.853 19.5507 54.7846 19.6167 54.6992C19.7593 54.5184 19.8346 54.2906 19.829 54.0572C19.8344 53.8215 19.7593 53.5914 19.6167 53.4076C19.5521 53.3187 19.4683 53.2466 19.372 53.1971C19.2756 53.1477 19.1695 53.1222 19.062 53.1228L19.0644 53.1203Z" fill="black"/>
<path d="M23.2372 52.9328V52.6031H23.8739V55.4511H23.2372V55.1538C23.1365 55.2781 23.0101 55.3773 22.8672 55.4439C22.7244 55.5106 22.5688 55.5429 22.4122 55.5385C22.2294 55.545 22.0475 55.5084 21.8804 55.4313C21.7132 55.3543 21.5652 55.2389 21.4474 55.0938C21.2061 54.7944 21.0775 54.4145 21.0856 54.0246C21.0751 53.8266 21.1029 53.6284 21.1676 53.4417C21.2322 53.2551 21.3323 53.0837 21.4619 52.9378C21.5861 52.8034 21.7361 52.6975 21.9023 52.6269C22.0685 52.5563 22.2472 52.5227 22.4267 52.5281C22.5834 52.5223 22.7391 52.5561 22.8803 52.6266C23.0215 52.6971 23.144 52.8022 23.2372 52.9328ZM22.4991 53.1227C22.3932 53.1196 22.288 53.1418 22.1917 53.1878C22.0955 53.2337 22.0108 53.3021 21.9443 53.3875C21.7999 53.5702 21.7245 53.801 21.7321 54.037C21.7254 54.2706 21.8008 54.4988 21.9443 54.6791C22.0102 54.7646 22.0944 54.8331 22.1903 54.8791C22.2862 54.925 22.3911 54.9472 22.4967 54.9439C22.6004 54.9439 22.703 54.9218 22.798 54.8788C22.8931 54.8358 22.9785 54.7729 23.049 54.6941C23.127 54.6047 23.187 54.5001 23.2255 54.3865C23.264 54.2728 23.2803 54.1523 23.2733 54.0321C23.2885 53.7829 23.2079 53.5377 23.049 53.35C22.9772 53.2752 22.8914 53.2165 22.7968 53.1774C22.7022 53.1383 22.6009 53.1197 22.4991 53.1227Z" fill="black"/>
<path d="M26.228 57V55.501C25.8201 55.5269 25.4176 55.3942 25.0992 55.1288C24.9531 54.9885 24.8365 54.8184 24.7568 54.6292C24.6771 54.4401 24.6359 54.2359 24.6359 54.0295C24.6359 53.8232 24.6771 53.619 24.7568 53.4298C24.8365 53.2407 24.9531 53.0706 25.0992 52.9303C25.4216 52.6674 25.8255 52.535 26.2353 52.5581V50.9392H26.8769V52.5581C27.2866 52.535 27.6905 52.6674 28.0129 52.9303C28.159 53.0706 28.2756 53.2407 28.3553 53.4298C28.435 53.619 28.4762 53.8232 28.4762 54.0295C28.4762 54.2359 28.435 54.4401 28.3553 54.6292C28.2756 54.8184 28.159 54.9885 28.0129 55.1288C27.6945 55.3942 27.292 55.5269 26.8841 55.501V57H26.228ZM26.228 54.9039V53.1552C26.0181 53.1444 25.8096 53.1964 25.6274 53.305C25.5119 53.3817 25.4189 53.4899 25.3589 53.6177C25.2989 53.7455 25.2741 53.8881 25.2874 54.0295C25.2782 54.1663 25.3029 54.3032 25.359 54.4273C25.4152 54.5515 25.5009 54.6587 25.6081 54.739C25.7913 54.8638 26.0095 54.9218 26.228 54.9039ZM26.8696 53.1552V54.9039C27.0901 54.9197 27.3093 54.8581 27.4919 54.729C27.5997 54.6492 27.6858 54.5421 27.742 54.4178C27.7982 54.2935 27.8225 54.1564 27.8127 54.0195C27.8259 53.8781 27.8012 53.7355 27.7411 53.6077C27.6811 53.4799 27.5882 53.3717 27.4726 53.2951C27.2895 53.1872 27.0799 53.1368 26.8696 53.1502V53.1552Z" fill="black"/>
<path d="M29.2213 52.603H29.8605V54.2294L31.7443 52.3557V55.461H31.1099V53.8022L29.2285 55.6784L29.2213 52.603Z" fill="black"/>
<path d="M32.2797 55.451L33.1408 54.3218C32.9773 54.2973 32.8249 54.2215 32.7042 54.1045C32.6264 54.0292 32.5647 53.9378 32.5231 53.8362C32.4816 53.7347 32.4611 53.6252 32.463 53.5149C32.4583 53.3932 32.4787 53.2719 32.5228 53.1591C32.5669 53.0462 32.6337 52.9444 32.7187 52.8604C32.9428 52.6736 33.2281 52.584 33.5147 52.6105H34.5398V55.4585H33.9006V54.4093H33.7703L33.0178 55.4585L32.2797 55.451ZM33.9127 53.8596V53.1701H33.5388C33.4246 53.1619 33.3101 53.1834 33.2059 53.2326C33.1578 53.2608 33.1178 53.3019 33.0903 53.3515C33.0627 53.4012 33.0485 53.4576 33.0492 53.5149C33.0461 53.5691 33.0567 53.6231 33.08 53.6718C33.1033 53.7204 33.1384 53.7619 33.1818 53.7922C33.2908 53.8483 33.4128 53.8717 33.534 53.8596H33.9127Z" fill="black"/>
</g>
<defs>
<clipPath id="clip0_599_144">
<rect width="37" height="57" fill="white"/>
</clipPath>
</defs>
</svg>
